<?xml version="1.0" standalone="no"?>
<!DOCTYPE svg PUBLIC "-//W3C//DTD SVG 20010904//EN"
 "http://www.w3.org/TR/2001/REC-SVG-20010904/DTD/svg10.dtd">
<svg version="1.0" xmlns="http://www.w3.org/2000/svg"
 width="440.000000pt" height="440.000000pt" viewBox="0 0 440.000000 440.000000"
 preserveAspectRatio="xMidYMid meet">
<metadata>
Created by potrace 1.11, written by Peter Selinger 2001-2013
</metadata>
<g transform="translate(0.000000,440.000000) scale(0.100000,-0.100000)"
fill="#000000" stroke="none">
<path d="M2039 4396 c-2 -2 -36 -7 -74 -10 -39 -4 -82 -8 -95 -11 -13 -3 -42
-7 -65 -10 -111 -17 -324 -81 -475 -144 -129 -55 -350 -182 -442 -255 -14 -11
-41 -32 -59 -46 -102 -78 -248 -224 -348 -350 -242 -303 -397 -659 -458 -1053
-23 -153 -23 -478 1 -637 108 -723 563 -1341 1221 -1660 168 -82 416 -163 560
-185 22 -3 72 -11 110 -16 111 -17 415 -19 545 -3 865 107 1573 695 1838 1525
17 53 33 107 36 120 2 13 9 42 14 64 11 40 18 82 28 160 3 22 8 51 11 65 2 14
6 108 8 210 6 370 -62 681 -221 1006 -56 116 -191 334 -241 389 -10 12 -43 50
-73 85 -329 388 -819 658 -1335 736 -95 14 -476 30 -486 20z m336 -807 c33 -5
71 -11 85 -14 14 -3 40 -8 57 -11 23 -4 31 -10 25 -19 -6 -11 -145 -163 -237
-260 -11 -11 -70 -74 -131 -140 -61 -66 -134 -145 -163 -175 l-51 -55 0 332 0
332 33 5 c64 11 84 12 202 13 66 0 147 -3 180 -8z m1128 -880 c30 -76 66 -206
83 -299 13 -75 12 -345 -2 -420 -8 -41 -16 -90 -20 -108 -11 -65 -91 -282
-104 -282 -4 0 -36 37 -71 83 -35 45 -69 89 -76 97 -82 101 -368 474 -368 480
0 9 47 63 139 160 34 36 115 123 181 194 175 188 189 202 197 190 4 -6 22 -48
41 -95z m-1298 -1394 c120 -154 237 -303 259 -332 106 -134 106 -133 61 -145
-29 -7 -42 -10 -150 -28 -59 -9 -348 -6 -387 5 l-28 7 0 401 c0 339 2 399 14
387 7 -8 111 -141 231 -295z"/>
</g>
</svg>
