<?xml version="1.0" standalone="no"?>
<!DOCTYPE svg PUBLIC "-//W3C//DTD SVG 20010904//EN"
 "http://www.w3.org/TR/2001/REC-SVG-20010904/DTD/svg10.dtd">
<svg version="1.0" xmlns="http://www.w3.org/2000/svg"
 width="416.000000pt" height="416.000000pt" viewBox="0 0 416.000000 416.000000"
 preserveAspectRatio="xMidYMid meet">
<metadata>
Created by potrace 1.11, written by Peter Selinger 2001-2013
</metadata>
<g transform="translate(0.000000,416.000000) scale(0.100000,-0.100000)"
fill="#000000" stroke="none">
<path d="M1918 4155 c-2 -1 -34 -6 -73 -10 -38 -3 -88 -10 -110 -15 -22 -5
-56 -11 -75 -14 -19 -3 -84 -19 -145 -36 -475 -133 -895 -439 -1168 -854 -58
-87 -99 -154 -102 -166 -1 -3 -19 -41 -41 -85 -142 -288 -204 -581 -199 -930
2 -99 6 -198 10 -220 20 -125 29 -169 51 -257 175 -697 708 -1256 1404 -1473
86 -27 142 -42 185 -49 17 -3 54 -10 84 -16 126 -24 394 -32 551 -17 511 49
1003 299 1344 683 80 90 185 231 239 322 76 128 193 396 211 485 3 12 14 58
25 102 42 172 52 276 47 525 -2 129 -9 253 -14 275 -6 22 -13 56 -16 75 -7 48
-54 230 -65 255 -5 11 -21 54 -36 95 -224 606 -789 1107 -1425 1264 -112 27
-127 30 -235 47 -62 10 -439 22 -447 14z m307 -760 c44 -4 82 -8 85 -10 3 -2
23 -6 44 -9 22 -4 42 -8 44 -10 3 -4 -19 -28 -139 -157 -19 -20 -90 -96 -159
-170 -69 -73 -155 -165 -192 -204 l-68 -70 0 307 c0 283 1 307 18 312 9 3 51
8 92 12 41 3 76 7 77 8 4 3 124 -2 198 -9z m1090 -830 c63 -164 87 -291 90
-466 2 -121 -11 -237 -39 -349 -20 -77 -86 -250 -96 -250 -3 0 -42 46 -86 103
-44 56 -155 198 -247 315 -92 117 -167 217 -167 223 0 6 6 16 13 23 6 7 59 64
117 125 58 62 121 130 140 150 19 20 78 83 129 139 66 70 97 98 103 89 4 -6
23 -52 43 -102z m-1245 -1320 c116 -148 216 -277 223 -285 89 -110 118 -153
106 -160 -48 -30 -416 -49 -519 -27 -42 8 -38 -19 -40 297 -2 402 -1 465 9
455 5 -6 105 -131 221 -280z"/>
</g>
</svg>
